<svg width="22" height="19" viewBox="0 0 22 19" fill="none" xmlns="http://www.w3.org/2000/svg">
<path fill-rule="evenodd" clip-rule="evenodd" d="M11 3.201L12.5505 1.63621C14.7122 -0.545403 18.217 -0.545403 20.3787 1.63621C22.5404 3.81782 22.5404 7.35492 20.3787 9.53653L11.0016 19L11 18.9984L10.9984 19L1.62128 9.53653C-0.540425 7.35492 -0.540425 3.81782 1.62128 1.63621C3.78298 -0.545403 7.28779 -0.545403 9.44949 1.63621L11 3.201ZM11.0013 16.1588L18.958 8.12881C20.3473 6.72674 20.3473 4.446 18.958 3.04392C17.5788 1.65202 15.3504 1.65202 13.9712 3.04392L11 6.04249L8.02881 3.04392C6.64961 1.65203 4.42115 1.65202 3.04196 3.04393C1.65268 4.446 1.65268 6.72674 3.04196 8.12881L10.9987 16.1588L11 16.1575L11.0013 16.1588Z" fill="#1B1B24"/>
</svg>
